<?xml version="1.0" encoding="utf-8"?><svg xmlns="http://www.w3.org/2000/svg" xmlns:xlink="http://www.w3.org/1999/xlink"><symbol fill="currentColor" class="bi bi-arrow-repeat" viewBox="0 0 16 16" id="arrow-repeat" xmlns="http://www.w3.org/2000/svg"><path d="M11.534 7h3.932a.25.25 0 01.192.41l-1.966 2.36a.25.25 0 01-.384 0l-1.966-2.36a.25.25 0 01.192-.41zm-11 2h3.932a.25.25 0 00.192-.41L2.692 6.23a.25.25 0 00-.384 0L.342 8.59A.25.25 0 00.534 9z"/><path fill-rule="evenodd" d="M8 3c-1.552 0-2.94.707-3.857 1.818a.5.5 0 11-.771-.636A6.002 6.002 0 0113.917 7H12.9A5.002 5.002 0 008 3zM3.1 9a5.002 5.002 0 008.757 2.182.5.5 0 11.771.636A6.002 6.002 0 012.083 9H3.1z"/></symbol><symbol fill="currentColor" class="bi bi-bag-x-fill" viewBox="0 0 16 16" id="bag-x-fill" xmlns="http://www.w3.org/2000/svg"><path fill-rule="evenodd" d="M10.5 3.5a2.5 2.5 0 00-5 0V4h5v-.5zm1 0V4H15v10a2 2 0 01-2 2H3a2 2 0 01-2-2V4h3.5v-.5a3.5 3.5 0 117 0zM6.854 8.146a.5.5 0 10-.708.708L7.293 10l-1.147 1.146a.5.5 0 00.708.708L8 10.707l1.146 1.147a.5.5 0 00.708-.708L8.707 10l1.147-1.146a.5.5 0 00-.708-.708L8 9.293 6.854 8.146z"/></symbol><symbol fill="currentColor" class="bi bi-basket" viewBox="0 0 16 16" id="basket" xmlns="http://www.w3.org/2000/svg"><path d="M5.757 1.071a.5.5 0 01.172.686L3.383 6h9.234L10.07 1.757a.5.5 0 11.858-.514L13.783 6H15a1 1 0 011 1v1a1 1 0 01-1 1v4.5a2.5 2.5 0 01-2.5 2.5h-9A2.5 2.5 0 011 13.5V9a1 1 0 01-1-1V7a1 1 0 011-1h1.217L5.07 1.243a.5.5 0 01.686-.172zM2 9v4.5A1.5 1.5 0 003.5 15h9a1.5 1.5 0 001.5-1.5V9H2zM1 7v1h14V7H1zm3 3a.5.5 0 01.5.5v3a.5.5 0 01-1 0v-3A.5.5 0 014 10zm2 0a.5.5 0 01.5.5v3a.5.5 0 01-1 0v-3A.5.5 0 016 10zm2 0a.5.5 0 01.5.5v3a.5.5 0 01-1 0v-3A.5.5 0 018 10zm2 0a.5.5 0 01.5.5v3a.5.5 0 01-1 0v-3a.5.5 0 01.5-.5zm2 0a.5.5 0 01.5.5v3a.5.5 0 01-1 0v-3a.5.5 0 01.5-.5z"/></symbol><symbol fill="currentColor" class="bi bi-cart-plus-fill" viewBox="0 0 16 16" id="cart-plus-fill" xmlns="http://www.w3.org/2000/svg"><path d="M.5 1a.5.5 0 000 1h1.11l.401 1.607 1.498 7.985A.5.5 0 004 12h1a2 2 0 100 4 2 2 0 000-4h7a2 2 0 100 4 2 2 0 000-4h1a.5.5 0 00.491-.408l1.5-8A.5.5 0 0014.5 3H2.89l-.405-1.621A.5.5 0 002 1H.5zM6 14a1 1 0 11-2 0 1 1 0 012 0zm7 0a1 1 0 11-2 0 1 1 0 012 0zM9 5.5V7h1.5a.5.5 0 010 1H9v1.5a.5.5 0 01-1 0V8H6.5a.5.5 0 010-1H8V5.5a.5.5 0 011 0z"/></symbol><symbol fill="currentColor" class="bi bi-check-circle-fill" viewBox="0 0 16 16" id="check-circle-fill" xmlns="http://www.w3.org/2000/svg"><path d="M16 8A8 8 0 110 8a8 8 0 0116 0zm-3.97-3.03a.75.75 0 00-1.08.022L7.477 9.417 5.384 7.323a.75.75 0 00-1.06 1.06L6.97 11.03a.75.75 0 001.079-.02l3.992-4.99a.75.75 0 00-.01-1.05z"/></symbol><symbol fill="currentColor" class="bi bi-clipboard-check" viewBox="0 0 16 16" id="clipboard-check" xmlns="http://www.w3.org/2000/svg"><path fill-rule="evenodd" d="M10.854 7.146a.5.5 0 010 .708l-3 3a.5.5 0 01-.708 0l-1.5-1.5a.5.5 0 11.708-.708L7.5 9.793l2.646-2.647a.5.5 0 01.708 0z"/><path d="M4 1.5H3a2 2 0 00-2 2V14a2 2 0 002 2h10a2 2 0 002-2V3.5a2 2 0 00-2-2h-1v1h1a1 1 0 011 1V14a1 1 0 01-1 1H3a1 1 0 01-1-1V3.5a1 1 0 011-1h1v-1z"/><path d="M9.5 1a.5.5 0 01.5.5v1a.5.5 0 01-.5.5h-3a.5.5 0 01-.5-.5v-1a.5.5 0 01.5-.5h3zm-3-1A1.5 1.5 0 005 1.5v1A1.5 1.5 0 006.5 4h3A1.5 1.5 0 0011 2.5v-1A1.5 1.5 0 009.5 0h-3z"/></symbol><symbol fill="currentColor" class="bi bi-clipboard-data" viewBox="0 0 16 16" id="clipboard-data" xmlns="http://www.w3.org/2000/svg"><path d="M4 11a1 1 0 112 0v1a1 1 0 11-2 0v-1zm6-4a1 1 0 112 0v5a1 1 0 11-2 0V7zM7 9a1 1 0 012 0v3a1 1 0 11-2 0V9z"/><path d="M4 1.5H3a2 2 0 00-2 2V14a2 2 0 002 2h10a2 2 0 002-2V3.5a2 2 0 00-2-2h-1v1h1a1 1 0 011 1V14a1 1 0 01-1 1H3a1 1 0 01-1-1V3.5a1 1 0 011-1h1v-1z"/><path d="M9.5 1a.5.5 0 01.5.5v1a.5.5 0 01-.5.5h-3a.5.5 0 01-.5-.5v-1a.5.5 0 01.5-.5h3zm-3-1A1.5 1.5 0 005 1.5v1A1.5 1.5 0 006.5 4h3A1.5 1.5 0 0011 2.5v-1A1.5 1.5 0 009.5 0h-3z"/></symbol><symbol fill="currentColor" class="bi bi-credit-card-2-back-fill" viewBox="0 0 16 16" id="credit-card-2-back-fill" xmlns="http://www.w3.org/2000/svg"><path d="M0 4a2 2 0 012-2h12a2 2 0 012 2v5H0V4zm11.5 1a.5.5 0 00-.5.5v1a.5.5 0 00.5.5h2a.5.5 0 00.5-.5v-1a.5.5 0 00-.5-.5h-2zM0 11v1a2 2 0 002 2h12a2 2 0 002-2v-1H0z"/></symbol><symbol fill="currentColor" class="bi bi-dash-circle-fill" viewBox="0 0 16 16" id="dash-circle-fill" xmlns="http://www.w3.org/2000/svg"><path d="M16 8A8 8 0 110 8a8 8 0 0116 0zM4.5 7.5a.5.5 0 000 1h7a.5.5 0 000-1h-7z"/></symbol><symbol viewBox="0 0 16 16" class="bi bi-eye-fill" fill="currentColor" id="eye-fill" xmlns="http://www.w3.org/2000/svg"><path d="M10.5 8a2.5 2.5 0 11-5 0 2.5 2.5 0 015 0z"/><path fill-rule="evenodd" d="M0 8s3-5.5 8-5.5S16 8 16 8s-3 5.5-8 5.5S0 8 0 8zm8 3.5a3.5 3.5 0 100-7 3.5 3.5 0 000 7z"/></symbol><symbol fill="currentColor" class="bi bi-facebook" viewBox="0 0 16 16" id="facebook" xmlns="http://www.w3.org/2000/svg"><path d="M16 8.049c0-4.446-3.582-8.05-8-8.05C3.58 0-.002 3.603-.002 8.05c0 4.017 2.926 7.347 6.75 7.951v-5.625h-2.03V8.05H6.75V6.275c0-2.017 1.195-3.131 3.022-3.131.876 0 1.791.157 1.791.157v1.98h-1.009c-.993 0-1.303.621-1.303 1.258v1.51h2.218l-.354 2.326H9.25V16c3.824-.604 6.75-3.934 6.75-7.951z"/></symbol><symbol fill="currentColor" class="bi bi-filter-circle-fill" viewBox="0 0 16 16" id="filter-circle-fill" xmlns="http://www.w3.org/2000/svg"><path d="M8 16A8 8 0 108 0a8 8 0 000 16zM3.5 5h9a.5.5 0 010 1h-9a.5.5 0 010-1zM5 8.5a.5.5 0 01.5-.5h5a.5.5 0 010 1h-5a.5.5 0 01-.5-.5zm2 3a.5.5 0 01.5-.5h1a.5.5 0 010 1h-1a.5.5 0 01-.5-.5z"/></symbol><symbol fill="currentColor" class="bi bi-gift" viewBox="0 0 16 16" id="gift" xmlns="http://www.w3.org/2000/svg"><path d="M3 2.5a2.5 2.5 0 015 0 2.5 2.5 0 015 0v.006c0 .07 0 .27-.038.494H15a1 1 0 011 1v2a1 1 0 01-1 1v7.5a1.5 1.5 0 01-1.5 1.5h-11A1.5 1.5 0 011 14.5V7a1 1 0 01-1-1V4a1 1 0 011-1h2.038A2.968 2.968 0 013 2.506V2.5zm1.068.5H7v-.5a1.5 1.5 0 10-3 0c0 .085.002.274.045.43a.522.522 0 00.023.07zM9 3h2.932a.56.56 0 00.023-.07c.043-.156.045-.345.045-.43a1.5 1.5 0 00-3 0V3zM1 4v2h6V4H1zm8 0v2h6V4H9zm5 3H9v8h4.5a.5.5 0 00.5-.5V7zm-7 8V7H2v7.5a.5.5 0 00.5.5H7z"/></symbol><symbol fill="currentColor" class="bi bi-github" viewBox="0 0 16 16" id="github" xmlns="http://www.w3.org/2000/svg"><path d="M8 0C3.58 0 0 3.58 0 8c0 3.54 2.29 6.53 5.47 7.59.4.07.55-.17.55-.38 0-.19-.01-.82-.01-1.49-2.01.37-2.53-.49-2.69-.94-.09-.23-.48-.94-.82-1.13-.28-.15-.68-.52-.01-.53.63-.01 1.08.58 1.23.82.72 1.21 1.87.87 2.33.66.07-.52.28-.87.51-1.07-1.78-.2-3.64-.89-3.64-3.95 0-.87.31-1.59.82-2.15-.08-.2-.36-1.02.08-2.12 0 0 .67-.21 2.2.82.64-.18 1.32-.27 2-.27.68 0 1.36.09 2 .27 1.53-1.04 2.2-.82 2.2-.82.44 1.1.16 1.92.08 2.12.51.56.82 1.27.82 2.15 0 3.07-1.87 3.75-3.65 3.95.29.25.54.73.54 1.48 0 1.07-.01 1.93-.01 2.2 0 .21.15.46.55.38A8.012 8.012 0 0016 8c0-4.42-3.58-8-8-8z"/></symbol><symbol fill="currentColor" class="bi bi-google" viewBox="0 0 16 16" id="google" xmlns="http://www.w3.org/2000/svg"><path d="M15.545 6.558a9.42 9.42 0 01.139 1.626c0 2.434-.87 4.492-2.384 5.885h.002C11.978 15.292 10.158 16 8 16A8 8 0 118 0a7.689 7.689 0 015.352 2.082l-2.284 2.284A4.347 4.347 0 008 3.166c-2.087 0-3.86 1.408-4.492 3.304a4.792 4.792 0 000 3.063h.003c.635 1.893 2.405 3.301 4.492 3.301 1.078 0 2.004-.276 2.722-.764h-.003a3.702 3.702 0 001.599-2.431H8v-3.08h7.545z"/></symbol><symbol fill="currentColor" class="bi bi-heart-fill" viewBox="0 0 16 16" id="heart-fill" xmlns="http://www.w3.org/2000/svg"><path fill-rule="evenodd" d="M8 1.314C12.438-3.248 23.534 4.735 8 15-7.534 4.736 3.562-3.248 8 1.314z"/></symbol><symbol fill="currentColor" class="bi bi-info-circle" viewBox="0 0 16 16" id="info-circle" xmlns="http://www.w3.org/2000/svg"><path d="M8 15A7 7 0 118 1a7 7 0 010 14zm0 1A8 8 0 108 0a8 8 0 000 16z"/><path d="M8.93 6.588l-2.29.287-.082.38.45.083c.294.07.352.176.288.469l-.738 3.468c-.194.897.105 1.319.808 1.319.545 0 1.178-.252 1.465-.598l.088-.416c-.2.176-.492.246-.686.246-.275 0-.375-.193-.304-.533L8.93 6.588zM9 4.5a1 1 0 11-2 0 1 1 0 012 0z"/></symbol><symbol fill="currentColor" class="bi bi-instagram" viewBox="0 0 16 16" id="instagram" xmlns="http://www.w3.org/2000/svg"><path d="M8 0C5.829 0 5.556.01 4.703.048 3.85.088 3.269.222 2.76.42a3.917 3.917 0 00-1.417.923A3.927 3.927 0 00.42 2.76C.222 3.268.087 3.85.048 4.7.01 5.555 0 5.827 0 8.001c0 2.172.01 2.444.048 3.297.04.852.174 1.433.372 1.942.205.526.478.972.923 1.417.444.445.89.719 1.416.923.51.198 1.09.333 1.942.372C5.555 15.99 5.827 16 8 16s2.444-.01 3.298-.048c.851-.04 1.434-.174 1.943-.372a3.916 3.916 0 001.416-.923c.445-.445.718-.891.923-1.417.197-.509.332-1.09.372-1.942C15.99 10.445 16 10.173 16 8s-.01-2.445-.048-3.299c-.04-.851-.175-1.433-.372-1.941a3.926 3.926 0 00-.923-1.417A3.911 3.911 0 0013.24.42c-.51-.198-1.092-.333-1.943-.372C10.443.01 10.172 0 7.998 0h.003zm-.717 1.442h.718c2.136 0 2.389.007 3.232.046.78.035 1.204.166 1.486.275.373.145.64.319.92.599.28.28.453.546.598.92.11.281.24.705.275 1.485.039.843.047 1.096.047 3.231s-.008 2.389-.047 3.232c-.035.78-.166 1.203-.275 1.485a2.47 2.47 0 01-.599.919c-.28.28-.546.453-.92.598-.28.11-.704.24-1.485.276-.843.038-1.096.047-3.232.047s-2.39-.009-3.233-.047c-.78-.036-1.203-.166-1.485-.276a2.478 2.478 0 01-.92-.598 2.48 2.48 0 01-.6-.92c-.109-.281-.24-.705-.275-1.485-.038-.843-.046-1.096-.046-3.233 0-2.136.008-2.388.046-3.231.036-.78.166-1.204.276-1.486.145-.373.319-.64.599-.92.28-.28.546-.453.92-.598.282-.11.705-.24 1.485-.276.738-.034 1.024-.044 2.515-.045v.002zm4.988 1.328a.96.96 0 100 1.92.96.96 0 000-1.92zm-4.27 1.122a4.109 4.109 0 100 8.217 4.109 4.109 0 000-8.217zm0 1.441a2.667 2.667 0 110 5.334 2.667 2.667 0 010-5.334z"/></symbol><symbol fill="currentColor" class="bi bi-linkedin" viewBox="0 0 16 16" id="linkedin" xmlns="http://www.w3.org/2000/svg"><path d="M0 1.146C0 .513.526 0 1.175 0h13.65C15.474 0 16 .513 16 1.146v13.708c0 .633-.526 1.146-1.175 1.146H1.175C.526 16 0 15.487 0 14.854V1.146zm4.943 12.248V6.169H2.542v7.225h2.401zm-1.2-8.212c.837 0 1.358-.554 1.358-1.248-.015-.709-.52-1.248-1.342-1.248-.822 0-1.359.54-1.359 1.248 0 .694.521 1.248 1.327 1.248h.016zm4.908 8.212V9.359c0-.216.016-.432.08-.586.173-.431.568-.878 1.232-.878.869 0 1.216.662 1.216 1.634v3.865h2.401V9.25c0-2.22-1.184-3.252-2.764-3.252-1.274 0-1.845.7-2.165 1.193v.025h-.016a5.54 5.54 0 01.016-.025V6.169h-2.4c.03.678 0 7.225 0 7.225h2.4z"/></symbol><symbol viewBox="0 0 16 16" class="bi bi-list" fill="currentColor" id="list" xmlns="http://www.w3.org/2000/svg"><path fill-rule="evenodd" d="M2.5 11.5A.5.5 0 013 11h10a.5.5 0 010 1H3a.5.5 0 01-.5-.5zm0-4A.5.5 0 013 7h10a.5.5 0 010 1H3a.5.5 0 01-.5-.5zm0-4A.5.5 0 013 3h10a.5.5 0 010 1H3a.5.5 0 01-.5-.5z"/></symbol><symbol fill="currentColor" class="bi bi-pencil-square" viewBox="0 0 16 16" id="pencil-square" xmlns="http://www.w3.org/2000/svg"><path d="M15.502 1.94a.5.5 0 010 .706L14.459 3.69l-2-2L13.502.646a.5.5 0 01.707 0l1.293 1.293zm-1.75 2.456l-2-2L4.939 9.21a.5.5 0 00-.121.196l-.805 2.414a.25.25 0 00.316.316l2.414-.805a.5.5 0 00.196-.12l6.813-6.814z"/><path fill-rule="evenodd" d="M1 13.5A1.5 1.5 0 002.5 15h11a1.5 1.5 0 001.5-1.5v-6a.5.5 0 00-1 0v6a.5.5 0 01-.5.5h-11a.5.5 0 01-.5-.5v-11a.5.5 0 01.5-.5H9a.5.5 0 000-1H2.5A1.5 1.5 0 001 2.5v11z"/></symbol><symbol fill="currentColor" class="bi bi-plus" viewBox="0 0 16 16" id="plus" xmlns="http://www.w3.org/2000/svg"><path d="M8 4a.5.5 0 01.5.5v3h3a.5.5 0 010 1h-3v3a.5.5 0 01-1 0v-3h-3a.5.5 0 010-1h3v-3A.5.5 0 018 4z"/></symbol><symbol fill="currentColor" class="bi bi-slack" viewBox="0 0 16 16" id="slack" xmlns="http://www.w3.org/2000/svg"><path d="M3.362 10.11c0 .926-.756 1.681-1.681 1.681S0 11.036 0 10.111C0 9.186.756 8.43 1.68 8.43h1.682v1.68zm.846 0c0-.924.756-1.68 1.681-1.68s1.681.756 1.681 1.68v4.21c0 .924-.756 1.68-1.68 1.68a1.685 1.685 0 01-1.682-1.68v-4.21zM5.89 3.362c-.926 0-1.682-.756-1.682-1.681S4.964 0 5.89 0s1.68.756 1.68 1.68v1.682H5.89zm0 .846c.924 0 1.68.756 1.68 1.681S6.814 7.57 5.89 7.57H1.68C.757 7.57 0 6.814 0 5.89c0-.926.756-1.682 1.68-1.682h4.21zm6.749 1.682c0-.926.755-1.682 1.68-1.682.925 0 1.681.756 1.681 1.681s-.756 1.681-1.68 1.681h-1.681V5.89zm-.848 0c0 .924-.755 1.68-1.68 1.68A1.685 1.685 0 018.43 5.89V1.68C8.43.757 9.186 0 10.11 0c.926 0 1.681.756 1.681 1.68v4.21zm-1.681 6.748c.926 0 1.682.756 1.682 1.681S11.036 16 10.11 16s-1.681-.756-1.681-1.68v-1.682h1.68zm0-.847c-.924 0-1.68-.755-1.68-1.68 0-.925.756-1.681 1.68-1.681h4.21c.924 0 1.68.756 1.68 1.68 0 .926-.756 1.681-1.68 1.681h-4.21z"/></symbol><symbol fill="currentColor" class="bi bi-star-fill" viewBox="0 0 16 16" id="star-fill" xmlns="http://www.w3.org/2000/svg"><path d="M3.612 15.443c-.386.198-.824-.149-.746-.592l.83-4.73L.173 6.765c-.329-.314-.158-.888.283-.95l4.898-.696L7.538.792c.197-.39.73-.39.927 0l2.184 4.327 4.898.696c.441.062.612.636.283.95l-3.523 3.356.83 4.73c.078.443-.36.79-.746.592L8 13.187l-4.389 2.256z"/></symbol><symbol fill="currentColor" class="bi bi-star-half" viewBox="0 0 16 16" id="star-half" xmlns="http://www.w3.org/2000/svg"><path d="M5.354 5.119L7.538.792A.516.516 0 018 .5c.183 0 .366.097.465.292l2.184 4.327 4.898.696A.537.537 0 0116 6.32a.55.55 0 01-.17.445l-3.523 3.356.83 4.73c.078.443-.36.79-.746.592L8 13.187l-4.389 2.256a.519.519 0 01-.146.05c-.341.06-.668-.254-.6-.642l.83-4.73L.173 6.765a.55.55 0 01-.171-.403.59.59 0 01.084-.302.513.513 0 01.37-.245l4.898-.696zM8 12.027c.08 0 .16.018.232.056l3.686 1.894-.694-3.957a.564.564 0 01.163-.505l2.906-2.77-4.052-.576a.525.525 0 01-.393-.288L8.002 2.223 8 2.226v9.8z"/></symbol><symbol fill="currentColor" class="bi bi-trash" viewBox="0 0 16 16" id="trash" xmlns="http://www.w3.org/2000/svg"><path d="M5.5 5.5A.5.5 0 016 6v6a.5.5 0 01-1 0V6a.5.5 0 01.5-.5zm2.5 0a.5.5 0 01.5.5v6a.5.5 0 01-1 0V6a.5.5 0 01.5-.5zm3 .5a.5.5 0 00-1 0v6a.5.5 0 001 0V6z"/><path fill-rule="evenodd" d="M14.5 3a1 1 0 01-1 1H13v9a2 2 0 01-2 2H5a2 2 0 01-2-2V4h-.5a1 1 0 01-1-1V2a1 1 0 011-1H6a1 1 0 011-1h2a1 1 0 011 1h3.5a1 1 0 011 1v1zM4.118 4L4 4.059V13a1 1 0 001 1h6a1 1 0 001-1V4.059L11.882 4H4.118zM2.5 3V2h11v1h-11z"/></symbol><symbol fill="currentColor" class="bi bi-trash-fill" viewBox="0 0 16 16" id="trash-fill" xmlns="http://www.w3.org/2000/svg"><path d="M2.5 1a1 1 0 00-1 1v1a1 1 0 001 1H3v9a2 2 0 002 2h6a2 2 0 002-2V4h.5a1 1 0 001-1V2a1 1 0 00-1-1H10a1 1 0 00-1-1H7a1 1 0 00-1 1H2.5zm3 4a.5.5 0 01.5.5v7a.5.5 0 01-1 0v-7a.5.5 0 01.5-.5zM8 5a.5.5 0 01.5.5v7a.5.5 0 01-1 0v-7A.5.5 0 018 5zm3 .5v7a.5.5 0 01-1 0v-7a.5.5 0 011 0z"/></symbol><symbol fill="currentColor" class="bi bi-twitch" viewBox="0 0 16 16" id="twitch" xmlns="http://www.w3.org/2000/svg"><path d="M3.857 0L1 2.857v10.286h3.429V16l2.857-2.857H9.57L14.714 8V0H3.857zm9.714 7.429l-2.285 2.285H9l-2 2v-2H4.429V1.143h9.142v6.286z"/><path d="M11.857 3.143h-1.143V6.57h1.143V3.143zm-3.143 0H7.571V6.57h1.143V3.143z"/></symbol><symbol fill="currentColor" class="bi bi-twitter" viewBox="0 0 16 16" id="twitter" xmlns="http://www.w3.org/2000/svg"><path d="M5.026 15c6.038 0 9.341-5.003 9.341-9.334 0-.14 0-.282-.006-.422A6.685 6.685 0 0016 3.542a6.658 6.658 0 01-1.889.518 3.301 3.301 0 001.447-1.817 6.533 6.533 0 01-2.087.793A3.286 3.286 0 007.875 6.03a9.325 9.325 0 01-6.767-3.429 3.289 3.289 0 001.018 4.382A3.323 3.323 0 01.64 6.575v.045a3.288 3.288 0 002.632 3.218 3.203 3.203 0 01-.865.115 3.23 3.23 0 01-.614-.057 3.283 3.283 0 003.067 2.277A6.588 6.588 0 01.78 13.58a6.32 6.32 0 01-.78-.045A9.344 9.344 0 005.026 15z"/></symbol><symbol fill="currentColor" class="bi bi-x" viewBox="0 0 16 16" id="x" xmlns="http://www.w3.org/2000/svg"><path d="M4.646 4.646a.5.5 0 01.708 0L8 7.293l2.646-2.647a.5.5 0 01.708.708L8.707 8l2.647 2.646a.5.5 0 01-.708.708L8 8.707l-2.646 2.647a.5.5 0 01-.708-.708L7.293 8 4.646 5.354a.5.5 0 010-.708z"/></symbol><symbol fill="currentColor" class="bi bi-youtube" viewBox="0 0 16 16" id="youtube" xmlns="http://www.w3.org/2000/svg"><path d="M8.051 1.999h.089c.822.003 4.987.033 6.11.335a2.01 2.01 0 011.415 1.42c.101.38.172.883.22 1.402l.01.104.022.26.008.104c.065.914.073 1.77.074 1.957v.075c-.001.194-.01 1.108-.082 2.06l-.008.105-.009.104c-.05.572-.124 1.14-.235 1.558a2.007 2.007 0 01-1.415 1.42c-1.16.312-5.569.334-6.18.335h-.142c-.309 0-1.587-.006-2.927-.052l-.17-.006-.087-.004-.171-.007-.171-.007c-1.11-.049-2.167-.128-2.654-.26a2.007 2.007 0 01-1.415-1.419c-.111-.417-.185-.986-.235-1.558L.09 9.82l-.008-.104A31.4 31.4 0 010 7.68v-.122C.002 7.343.01 6.6.064 5.78l.007-.103.003-.052.008-.104.022-.26.01-.104c.048-.519.119-1.023.22-1.402a2.007 2.007 0 011.415-1.42c.487-.13 1.544-.21 2.654-.26l.17-.007.172-.006.086-.003.171-.007A99.788 99.788 0 017.858 2h.193zM6.4 5.209v4.818l4.157-2.408L6.4 5.209z"/></symbol></svg>