<svg xmlns="http://www.w3.org/2000/svg" viewBox="0 0 50 42.2" class="mb-3 mt-2" width="75" fill="currentColor" aria-label=">frontpage">
  <title>Belgrade theme</title>
  <path d="M40 37.2c-2.8 0-4.2.8-5.5 1.6-1.2.7-2.3 1.2-4.5 1.2s-3.3-.6-4.5-1.3c-1.3-.7-2.7-1.6-5.5-1.6s-4.2.8-5.5 1.6c-1.2.8-2.3 1.3-4.5 1.3s-3.3-.6-4.5-1.3C4.3 38 2.8 37.2 0 37.2v2.1c2.2 0 3.3.6 4.5 1.3 1.3.7 2.7 1.6 5.5 1.6s4.2-.8 5.5-1.6c1.2-.7 2.2-1.3 4.5-1.3s3.3.6 4.5 1.3c1.3.7 2.7 1.6 5.5 1.6s4.2-.8 5.5-1.6c1.2-.7 2.2-1.3 4.5-1.3 2.2 0 3.3.6 4.5 1.3 1.3.7 2.7 1.6 5.5 1.6V40c-2.2 0-3.3-.6-4.5-1.3-1.2-.7-2.7-1.5-5.5-1.5zm5.5-3.5c-.1 0-.1-.1-.2-.1l-2-8.6c.7-.6 1.2-1.6 1.2-2.6v-7.9l-3.4-4.1-3.4 4.1v4.1h-4.1V12l3.8-3V0h-6.6v3.2h-2.4V0h-6.6v3.2h-2.4V0h-6.6v9l3.7 3v6.8h-4v-4.1L9 10.5l-3.4 4.1v7.9c0 1 .5 1.9 1.2 2.6l-1.9 8.2c-1.1-.6-2.5-1.1-4.8-1.1v2.1c2.2 0 3.3.6 4.5 1.3 1.3.7 2.7 1.6 5.5 1.6s4.2-.8 5.5-1.6c1.2-.7 2.2-1.3 4.5-1.3s3.3.6 4.5 1.3c1.3.7 2.7 1.6 5.5 1.6s4.2-.8 5.5-1.6c1.2-.7 2.2-1.3 4.5-1.3 1.6 0 2.6.3 3.5.7v.1h.1c.3.1.6.3.9.5 1.3.7 2.7 1.6 5.5 1.6V35c-2.3 0-3.4-.6-4.6-1.3zm-5.7-18.3l1.3-1.6 1.3 1.6v7.1c0 .7-.6 1.3-1.3 1.3s-1.3-.6-1.3-1.3v-7.1zm-25-13.3h2.3v3.2h6.7V2.1h2.3v3.2h6.7V2.1h2.3V8l-2.4 1.9H17.2L14.8 8V2.1zm3.8 9.9h12.9v6.8H18.6V12zm-11 3.4l1.3-1.6 1.3 1.6v7.1c0 .7-.6 1.3-1.3 1.3s-1.3-.6-1.3-1.3v-7.1zm15.5 17.2v-5c0-1 .8-1.9 1.9-1.9 1 0 1.9.8 1.9 1.9v6.9c-.5-.2-.9-.5-1.4-.7-.6-.5-1.4-.9-2.4-1.2zm16.9-.4c-2.8 0-4.2.8-5.5 1.6-1.2.6-2.3 1.2-4.5 1.2-.4 0-.7 0-1-.1v-7.3c0-2.2-1.8-4-4-4s-4 1.8-4 4v4.6h-1c-2.8 0-4.2.8-5.5 1.6-1.2.6-2.3 1.2-4.5 1.2-1.5 0-2.5-.3-3.3-.7l2-8.4H9c1.9 0 3.4-1.5 3.4-3.4v-1.6h25.3v1.6c0 1.9 1.5 3.4 3.4 3.4h.3l1.6 6.6c-.9-.2-1.8-.3-3-.3z" />
</svg>
