<svg xmlns="http://www.w3.org/2000/svg" x="0px" y="0px"
   width="300px" height="74px" viewBox="0 0 222.97 55.08"><g data-name="Livello 2"><g data-name="Livello 1"><path d="M29.75 11.73C25.87 7.86 22.18 4.16 21.08 0 20 4.16 16.28 7.86 12.4 11.73 6.59 17.54 0 24.12 0 34a21.08 21.08 0 1042.15 0c0-9.88-6.59-16.46-12.4-22.27zM10.84 35.92a14.13 14.13 0 00-1.65 2.62.54.54 0 01-.36.3h-.18c-.47 0-1-.92-1-.92-.14-.22-.27-.45-.4-.69l-.09-.19C5.94 34.25 7 30.28 7 30.28a17.42 17.42 0 012.52-5.41 31.53 31.53 0 012.28-3l1 1 4.72 4.82a.54.54 0 010 .72l-4.93 5.47zm10.48 13.81a7.29 7.29 0 01-5.4-12.14c1.54-1.83 3.42-3.63 5.46-6 2.42 2.58 4 4.35 5.55 6.29a3.08 3.08 0 01.32.48 7.15 7.15 0 011.3 4.12 7.23 7.23 0 01-7.23 7.25zM35 38.14a.84.84 0 01-.67.58h-.14a1.22 1.22 0 01-.68-.55 37.77 37.77 0 00-4.28-5.31l-1.93-2-6.41-6.65a54 54 0 01-3.84-3.94 1.3 1.3 0 00-.1-.15 3.84 3.84 0 01-.51-1v-.19a3.4 3.4 0 011-3c1.24-1.24 2.49-2.49 3.67-3.79 1.3 1.44 2.69 2.82 4.06 4.19a57.6 57.6 0 017.55 8.58A16 16 0 0135.65 34a14.55 14.55 0 01-.65 4.14zM135.87 21H129v12.86c0 3.76-1.62 6.81-5.38 6.81s-5.4-3.05-5.4-6.81V21h-6.86v12.86c0 7.44 4.78 13.47 12.22 13.47s12.29-6 12.29-13.47zM197.96 13.13h6.85v33.54h-6.85zM209.87 14.36v-1.2h5.33v1.2h-1.95v5.31h-1.43v-5.31h-1.95zM217.97 13.16l1.52 4.48h.02l1.44-4.48h2.02v6.52h-1.34v-4.62h-.02l-1.6 4.62h-1.1l-1.6-4.58h-.02v4.58h-1.34v-6.52h2.02zM105.76 20.7c-5.91-1.37-9.63 4.5-9.79 4.82-.07.15-.08.24-.34.23s-.24-.23-.24-.23L94.66 21h-6.14v25.64h6.88V32.78c0-1.14 3-6.57 9-5.17a9.36 9.36 0 014.26 2v-7.83a11.32 11.32 0 00-2.86-1.08M151.88 27.19a6.87 6.87 0 11-6.88 6.86 6.86 6.86 0 016.87-6.86m-6.67 27.89V42.41s0-.27.26-.28.27.15.33.28a8.15 8.15 0 009.75 4.69 13.56 13.56 0 10-17.24-13.05v21z"/><path d="M188.47 34.05a6.87 6.87 0 11-6.86-6.86 6.87 6.87 0 016.86 6.86m-.19 12.6h6.89v-12.6a13.56 13.56 0 10-17.24 13.05 8.16 8.16 0 009.76-4.69c.05-.13.1-.28.32-.28s.26.28.26.28M68.84 18.92h-2.77v21.87l2.84.07c5.83 0 9.58-.53 9.58-11 0-10-3.31-10.94-9.65-10.94M67 46.6h-7.86V13.11h8.4c10.17 0 17.88 1.87 17.88 16.75S77.25 46.6 67 46.6"/></g></g></svg>