<?xml version="1.0" encoding="utf-8"?>
<!-- Generator: Adobe Illustrator 16.0.0, SVG Export Plug-In . SVG Version: 6.00 Build 0)  -->
<!DOCTYPE svg PUBLIC "-//W3C//DTD SVG 1.1//EN" "http://www.w3.org/Graphics/SVG/1.1/DTD/svg11.dtd">
<svg version="1.1" id="Layer_1" xmlns="http://www.w3.org/2000/svg" xmlns:xlink="http://www.w3.org/1999/xlink" x="0px" y="0px"
	 width="2695.558px" height="1002.262px" viewBox="0 0 2695.558 1002.262" enable-background="new 0 0 2695.558 1002.262"
	 xml:space="preserve">
<rect y="0.007" fill="none" width="2695.558" height="1002.248"/>
<polygon fill="#FFFFFF" points="999.224,501.635 763.422,767.677 1003.472,767.677 1119.033,637.284 1119.033,637.284 
	1239.202,501.707 1239.202,501.635 1239.562,501.274 1119.825,366.489 1003.472,234.657 763.422,234.657 "/>
<path fill="#FFFFFF" d="M520.42,767.677h189.146V77.191H520.42v209.377c-39.456-46.728-103.896-69.625-165.169-69.625
	c-157.969,0-267.05,130.97-267.05,283.683s111.169,284.69,269.138,284.69c62.28,0,127.801-23.904,160.993-76.896h2.088V767.677z
	 M405.075,381.105c76.896,0,121.609,55.081,121.609,120.529c0,67.608-44.713,119.521-121.609,119.521
	s-121.537-51.913-121.537-119.521C283.538,436.187,328.179,381.105,405.075,381.105z"/>
<path fill="#FFFFFF" d="M1719.447,234.657h-189.074v467.932l189.074,213.409V716.772c40.535,46.729,103.896,68.545,165.24,68.545
	c157.898,0,267.051-128.81,267.051-282.603c0-152.785-110.162-285.771-269.139-285.771c-62.352,0-126.793,24.913-161.064,77.977
	h-2.088V234.657z M1834.791,381.105c76.896,0,121.609,55.081,121.609,120.529c0,67.608-44.713,119.521-121.609,119.521
	s-121.537-51.913-121.537-119.521C1713.253,436.187,1757.894,381.105,1834.791,381.105z"/>
<path fill="#FFFFFF" d="M2396.468,234.657h-189.146v533.02h189.146V552.611c0-91.44,25.992-161.065,130.896-161.065
	c29.088,0,54.072,3.096,79.992,17.641V227.385h-36.359c-73.729,0-136.082,29.088-172.441,94.536h-2.088V234.657z"/>
<polygon fill="#FFFFFF" points="1296.803,564.203 1616.628,925.143 1376.58,925.143 1176.777,699.708 "/>
<polygon fill="#FFFFFF" points="1474.931,234.584 1234.954,234.584 1175.626,301.761 1295.578,437.698 "/>
</svg>
