<svg xmlns="http://www.w3.org/2000/svg" width="300" viewBox="0 0 1134.4 146.47">
  <title id="logoTitle">Belgrade theme logo</title>
  <path fill="currentColor" d="M295.43,30.14q7.45,5.91,7.46,16.54,0,8.45-4.61,13.89t-12.91,7q10.51,1.31,16.29,7.33t5.77,15.64q0,11.55-8.56,18t-24,6.42H237.5V24.24h37.1Q288,24.24,295.43,30.14Zm-4,30.56q6-4.68,6-13.37,0-8.43-6-13.1t-16.94-4.67H243V65.37h31.52Q285.38,65.37,291.41,60.7Zm3.37,43.79q7.2-5.13,7.2-14.6,0-9.21-7.2-14.21t-20.31-5H243v38.79h31.52Q287.58,109.61,294.78,104.49Z"/>
  <path fill="currentColor" d="M357.51,24.24H416v5.32H363v36.2h47.23v5.45H363v38.4h54.76v5.32H357.51Z"/>
  <path fill="currentColor" d="M662.94,70.43h4.93v33.08a47.62,47.62,0,0,1-14.79,8.76,48.88,48.88,0,0,1-17.38,3.18,46.13,46.13,0,0,1-23.49-6.23,46.67,46.67,0,0,1-17.06-16.8,44.19,44.19,0,0,1-6.29-23,43.56,43.56,0,0,1,6.35-23A47.51,47.51,0,0,1,636,23.59a47.39,47.39,0,0,1,17.19,3.18,48.6,48.6,0,0,1,14.72,8.88l-3.24,4a41.68,41.68,0,0,0-13.1-8A43,43,0,0,0,636,28.78a40.94,40.94,0,0,0-20.83,5.51A42.21,42.21,0,0,0,600,49.08a38.39,38.39,0,0,0-5.64,20.31,39.15,39.15,0,0,0,5.58,20.5A41.91,41.91,0,0,0,636,110.26a43.16,43.16,0,0,0,14.4-2.46,41.76,41.76,0,0,0,12.58-7Z"/>
  <path fill="currentColor" d="M783.87,114.93,762.46,84.18a48.55,48.55,0,0,1-7.65.52h-26.6v30.23h-5.45V24.24h32q16.86,0,26,7.78T790,54.08q0,11.55-5.71,19T767.65,83.27l22.71,31.66ZM754.94,79.38q14.26,0,22-6.49t7.72-18.68q0-11.94-7.72-18.3t-22-6.35H728.21V79.38Z"/>
  <path fill="currentColor" d="M910.37,114.93l-11.8-25.82H845.5l-11.68,25.82h-6L869,24.24h5.84l41.52,90.69ZM847.83,83.66H896.1l-24.26-53.2Z"/>
  <path fill="currentColor" d="M1018.39,30.27a45.17,45.17,0,0,1,16.93,16.48,45,45,0,0,1,0,45.67,45,45,0,0,1-17,16.48,47.3,47.3,0,0,1-23.49,6H958.9V24.24H995A46.88,46.88,0,0,1,1018.39,30.27Zm-2.85,74a40.86,40.86,0,0,0,14.92-14.53,39.47,39.47,0,0,0,0-40.23,41.22,41.22,0,0,0-35.62-19.91H964.35v80.05H995A40.71,40.71,0,0,0,1015.54,104.23Z"/>
  <path fill="currentColor" d="M1074.2,24.17h58.51v5.32h-53.06v36.2h47.23v5.45h-47.23v38.41h54.75v5.32h-60.2Z"/>
  <path fill="currentColor" d="M480.56,114.93V24.24h6.51v84.82h54.17v5.87Z"/>
  <path fill="currentColor" d="M138.93,129.23c-9.66,0-14.72,2.87-19.19,5.41-4.21,2.38-7.84,4.44-15.55,4.44S92.86,137,88.65,134.64c-4.47-2.54-9.53-5.41-19.19-5.41s-14.72,2.87-19.19,5.41c-4.2,2.38-7.83,4.44-15.54,4.44S23.39,137,19.19,134.64c-4.47-2.54-9.53-5.41-19.19-5.41v7.39c7.71,0,11.34,2.06,15.54,4.44,4.47,2.54,9.53,5.41,19.19,5.41s14.72-2.87,19.19-5.41c4.2-2.38,7.83-4.44,15.54-4.44S80.8,138.68,85,141.06c4.47,2.54,9.54,5.41,19.19,5.41s14.73-2.87,19.19-5.41c4.21-2.38,7.84-4.44,15.55-4.44s11.34,2.06,15.54,4.44c4.47,2.54,9.54,5.41,19.2,5.41v-7.39c-7.71,0-11.34-2.06-15.55-4.44C153.65,132.1,148.59,129.23,138.93,129.23Z"/>
  <path fill="currentColor" d="M158.12,117.08l-.65-.36-7-29.67a11.84,11.84,0,0,0,4-8.9V50.81l-11.9-14.29L130.7,50.81V65.14H116.59V41.6h.14l13.08-10.39V0H107V11.09H98.43V0H75.52V11.09H67V0H44.14V31.21L57.07,41.49V65.14H43V50.81L31.06,36.52,19.15,50.81V78.15a11.88,11.88,0,0,0,4,8.9l-6.72,28.53A32.93,32.93,0,0,0,0,111.68v7.39c7.71,0,11.34,2.06,15.54,4.44,4.47,2.54,9.53,5.41,19.19,5.41s14.72-2.87,19.19-5.41c4.2-2.38,7.83-4.44,15.54-4.44S80.8,121.13,85,123.51c4.47,2.54,9.54,5.41,19.19,5.41s14.73-2.87,19.19-5.41c4.21-2.38,7.84-4.44,15.55-4.44a25.54,25.54,0,0,1,12.12,2.59l.07.31.37-.09c1,.51,2,1.06,3,1.63,4.47,2.54,9.54,5.41,19.2,5.41v-7.39C166,121.53,162.33,119.47,158.12,117.08Zm-20-63.6,4.52-5.42,4.51,5.42V78.15a4.52,4.52,0,0,1-9,0ZM51.53,7.39h8.08V18.48h23.3V7.39H91V18.48h23.3V7.39h8.08V27.64l-8.27,6.57H59.8l-8.27-6.57ZM64.46,41.6H109.2V65.14H64.46ZM26.54,53.48l4.52-5.42,4.52,5.42V78.15a4.52,4.52,0,0,1-4.52,4.51h0a4.52,4.52,0,0,1-4.52-4.51ZM80.3,113.21V95.77a6.53,6.53,0,0,1,13.06,0v23.76a47.83,47.83,0,0,1-4.71-2.45A41.49,41.49,0,0,0,80.3,113.21Zm58.63-1.53c-9.66,0-14.72,2.87-19.19,5.4-4.21,2.39-7.84,4.45-15.55,4.45-1.25,0-2.38-.06-3.44-.16V95.77a13.92,13.92,0,0,0-27.84,0v16c-1.08-.09-2.23-.13-3.45-.13-9.66,0-14.72,2.87-19.19,5.4-4.2,2.39-7.83,4.45-15.54,4.45a25.57,25.57,0,0,1-11.53-2.32L30.08,90c.32,0,.65,0,1,0A11.92,11.92,0,0,0,43,78.15V72.53H130.7v5.62a11.92,11.92,0,0,0,11.91,11.9c.33,0,.65,0,1,0L149,113A36.28,36.28,0,0,0,138.93,111.68Z"/>
</svg>
