<?xml version="1.0" encoding="utf-8"?>
<!-- Generator: Adobe Illustrator 24.0.0, SVG Export Plug-In . SVG Version: 6.00 Build 0)  -->
<svg version="1.1" id="Layer_1" xmlns="http://www.w3.org/2000/svg" xmlns:xlink="http://www.w3.org/1999/xlink" x="0px" y="0px"
	 viewBox="0 0 426.8 394.9" style="enable-background:new 0 0 426.8 394.9;" xml:space="preserve">
<style type="text/css">
	.st0{fill:#FFFFFF;}
	.st1{fill:#DDDDDD;}
	.st2{stroke:#DDDDDD;stroke-width:5;stroke-linecap:round;stroke-miterlimit:10;}
	.st3{stroke:#000000;stroke-width:5;stroke-linecap:round;stroke-miterlimit:10;}
</style>
<g>
	<g>
		<path d="M220.6,80.4c3,3.5,2.7,8.6-0.8,11.6l0,0l-62.4,50.5l144.8,46.3l-5.5-66c-1.1-4.4,1.7-8.8,6.1-9.9c4.4-1.1,8.8,1.7,9.9,6.1
			l7.8,75.7l19.1,6.1c8.6,2.8,13.4,12,10.7,20.7l-5,15.6c-2.8,8.6-12,13.4-20.7,10.7L302,318.4c-6.9,21.6-30,33.6-51.7,26.7
			L109.1,300c-21.6-6.9-33.6-30-26.7-51.7l22.6-70.6c-8.6-2.8-13.4-12-10.7-20.7l5-15.6c2.8-8.6,12-13.4,20.7-10.7l19.1,6.1l69.8-57
			C212.3,76.6,217.5,77,220.6,80.4L220.6,80.4L220.6,80.4z M120.7,182.6l-22.6,70.6c-4.1,13,3,26.9,16,31l141.1,45.1
			c13,4.1,26.9-3,31-16l22.6-70.6L120.7,182.6z M182.8,214.7c4.3,1.3,7.4,4,6.7,5.9l-6.4,20.2c-0.6,1.8-4.6,2.2-8.9,0.9
			c-4.3-1.3-7.4-4-6.7-5.9l6.4-20.2C174.5,213.7,178.5,213.3,182.8,214.7z M233.9,232.1c4.3,1.3,7.4,3.9,6.8,5.8l-6.2,19.7
			c-0.6,1.8-4.5,2.1-8.9,0.8c-4.3-1.3-7.4-3.9-6.8-5.8l6.2-19.7C225.7,231.1,229.6,230.7,233.9,232.1z"/>
		<g>
			<path d="M251.2,314.5c-2.8,0-5.5-1.7-6.3-4.6c-0.7-2-1.5-3.9-2.5-5.8c-8.2-15.2-27.4-25.3-57.1-30.3c-17.3-2.9-37.8-3.8-59.2-2.7
				c-3.7,0.2-6.9-2.7-7.1-6.3c-0.2-3.6,2.7-6.9,6.3-7.1c22.4-1.2,43.9-0.2,62.1,2.9c34,5.7,56.4,18.1,66.7,37.2
				c1.3,2.5,2.5,5.2,3.5,7.9c1.2,3.6-0.7,7.3-4.2,8.5C252.6,314.3,252,314.5,251.2,314.5z"/>
		</g>
	</g>
	
		<rect x="214.5" y="73.2" transform="matrix(0.3045 -0.9525 0.9525 0.3045 -24.5332 343.2138)" class="st0" width="16.4" height="230.4"/>
</g>
<rect x="132.3" y="62.3" transform="matrix(0.7071 0.7071 -0.7071 0.7071 94.2821 -80.0933)" width="23" height="23"/>
<rect x="54.4" y="97.2" transform="matrix(0.9942 0.1076 -0.1076 0.9942 11.2029 -5.6823)" class="st1" width="7.7" height="7.7"/>
<rect x="345.7" y="80.4" transform="matrix(0.8963 -0.4435 0.4435 0.8963 -6.9635 172.1895)" class="st1" width="37.8" height="41.1"/>
<rect x="346.3" y="284.7" transform="matrix(0.9767 0.2145 -0.2145 0.9767 70.6243 -68.8678)" class="st1" width="12.7" height="12.7"/>
<g>
	<path class="st2" d="M143.8,7.6c-8.2,8.2-16.5,16.5-24.7,24.7"/>
	<path class="st2" d="M119.1,7.6c8.2,8.2,16.5,16.5,24.7,24.7"/>
</g>
<g>
	<path class="st3" d="M64.4,179.5c-4.1,6-8.1,11.9-12.2,17.9"/>
	<path class="st3" d="M49.3,182.3c6,4.1,11.9,8.1,17.9,12.2"/>
</g>
<g>
	<path class="st3" d="M302.4,11.2c-12.9,7.1-25.8,14.3-38.8,21.4"/>
	<path class="st3" d="M272.4,2.5c7.1,12.9,14.3,25.8,21.4,38.8"/>
</g>
<path class="st3" d="M49,33.2c18.7,18.7,37.3,37.3,56,56"/>
<path class="st3" d="M379.1,183.3c15.1-15.1,30.1-30.1,45.2-45.2"/>
<ellipse transform="matrix(0.105 -0.9945 0.9945 0.105 -208.6923 505.1439)" class="st1" cx="176.3" cy="368.5" rx="25" ry="82.4"/>
</svg>
